<svg xmlns="http://www.w3.org/2000/svg" width="60" height="60" viewBox="0 0 60 60" fill="none"><path d="M27.501 40.375V47.125C27.501 52.75 25.251 55 19.626 55H12.876C7.25098 55 5.00098 52.75 5.00098 47.125V40.375C5.00098 34.75 7.25098 32.5 12.876 32.5H19.626C25.251 32.5 27.501 34.75 27.501 40.375Z" stroke="#384BFF" stroke-width="3" stroke-linecap="round" stroke-linejoin="round"></path><path d="M55 37.5C55 47.175 47.175 55 37.5 55L40.125 50.625" stroke="#384BFF" stroke-width="3" stroke-linecap="round" stroke-linejoin="round"></path><path d="M5.00098 22.5001C5.00098 12.8251 12.826 5.00006 22.501 5.00006L19.876 9.37506" stroke="#384BFF" stroke-width="3" stroke-linecap="round" stroke-linejoin="round"></path><path d="M43.749 27.5001C49.9622 27.5001 54.999 22.4633 54.999 16.2501C54.999 10.0369 49.9622 5.00006 43.749 5.00006C37.5358 5.00006 32.499 10.0369 32.499 16.2501C32.499 22.4633 37.5358 27.5001 43.749 27.5001Z" stroke="#384BFF" stroke-width="3" stroke-linecap="round" stroke-linejoin="round"></path></svg>