<svg xmlns="http://www.w3.org/2000/svg" width="60" height="60" viewBox="0 0 60 60" fill="none"><path d="M41.0501 19.875C47.1501 25.975 47.1501 35.8749 41.0501 41.9749C34.9501 48.0749 25.05 48.0749 18.95 41.9749C12.85 35.8749 12.85 25.975 18.95 19.875C25.05 13.775 34.9501 13.775 41.0501 19.875Z" stroke="#384BFF" stroke-width="3" stroke-linecap="round" stroke-linejoin="round"></path><path d="M20.6245 54.1C15.6245 52.1 11.2495 48.475 8.34949 43.45C5.49949 38.525 4.54949 33.05 5.22449 27.825" stroke="#384BFF" stroke-width="3" stroke-linecap="round" stroke-linejoin="round"></path><path d="M14.623 11.2C18.873 7.87495 24.198 5.89996 29.998 5.89996C35.673 5.89996 40.8981 7.82493 45.0981 11.0249" stroke="#384BFF" stroke-width="3" stroke-linecap="round" stroke-linejoin="round"></path><path d="M39.374 54.1C44.374 52.1 48.749 48.475 51.649 43.45C54.499 38.525 55.449 33.05 54.774 27.825" stroke="#384BFF" stroke-width="3" stroke-linecap="round" stroke-linejoin="round"></path></svg>