<svg xmlns="http://www.w3.org/2000/svg" width="52" height="50" viewBox="0 0 52 50" fill="none"><path fill-rule="evenodd" clip-rule="evenodd" d="M29.5825 12.4143C29.3546 12.4143 29.1354 12.3212 28.972 12.1491C28.8358 12.0057 28.7513 11.8367 28.5965 11.5299C28.3242 10.9882 27.8169 9.9778 26.7678 8.64925C26.3336 8.09895 26.1587 7.91119 26.0354 7.78945C25.9395 7.69489 25.6944 7.46558 25.3418 7.20614C25.0753 7.52004 24.77 7.78514 24.4289 7.99722C23.4156 8.62924 22.4196 8.60484 21.6185 8.58627L21.5626 8.58484C21.5382 8.58484 19.0932 8.52895 16.4835 8.70954C14.6361 8.83711 14.0945 9.06202 13.6989 9.27993C13.3392 9.47909 12.6699 9.84888 12.3618 10.5339C12.2284 10.8292 12.1898 11.1186 12.1568 11.3508C12.1396 11.4798 12.1238 11.5915 12.0938 11.7032C11.9633 12.1819 11.5964 12.3797 11.297 12.404C11.1164 12.4198 10.6649 12.3939 10.3583 11.8322C10.281 11.6903 10.2063 11.5054 10.1376 11.2847C10.0115 10.8834 9.90973 10.3818 9.85815 9.90747C9.66473 8.15179 10.1304 6.71299 10.4242 6.01215C10.6148 5.55785 11.1881 4.37697 12.3862 3.21752C14.4613 1.21254 16.9407 0.698041 18.5817 0.356955C19.9503 0.0731943 20.9077 0.0316574 22.1115 0.00447453C23.0488 -0.0170564 24.1566 0.0231347 25.2773 0.487396C25.8505 0.723788 26.2691 1.0062 26.5958 1.376C26.8452 1.65976 26.9454 1.88198 27.0615 2.13846C27.1217 2.27034 27.1891 2.42079 27.2979 2.63C27.5702 3.14737 27.735 3.46118 28.0072 3.74351C28.1304 3.87108 28.1778 3.89835 28.3526 4.00143C28.539 4.11178 28.794 4.26088 29.2183 4.579C29.7399 4.97023 30.0853 5.22968 30.458 5.67825C30.6959 5.96631 31.1932 6.56532 31.3896 7.45536C31.5157 8.02288 31.4569 8.47 31.3594 9.21103C31.2964 9.68973 30.9724 10.5682 30.8736 10.8248C30.4551 11.924 30.243 12.2421 29.8446 12.3711C29.7602 12.3997 29.6716 12.4143 29.5825 12.4143ZM25.1455 5.33034C25.5425 5.33034 25.8864 5.57113 26.1043 5.7231L26.1271 5.73889C26.6474 6.09998 27.0171 6.43963 27.1905 6.61027C27.3782 6.79373 27.599 7.03739 28.0647 7.62644C28.7183 8.45475 29.1811 9.16994 29.5136 9.7432C29.6225 9.42643 29.707 9.13989 29.7257 8.99653C29.8145 8.31292 29.8403 8.08361 29.7801 7.81134C29.6698 7.3111 29.3803 6.96293 29.1897 6.73219C28.9418 6.43264 28.7039 6.25501 28.231 5.89948C27.8814 5.63716 27.6807 5.5182 27.5188 5.42364C27.3038 5.29751 27.1017 5.17864 26.8222 4.8877C26.3865 4.43627 26.1458 3.97766 25.8405 3.39722C25.7072 3.14351 25.6227 2.9544 25.5596 2.81678C25.4636 2.6047 25.4435 2.56173 25.3604 2.46717C25.2558 2.34821 25.081 2.1905 24.6496 2.01143C23.8141 1.66604 22.9556 1.63589 22.1515 1.65321C21.0007 1.67896 20.1537 1.71628 18.9197 1.97133C17.3777 2.29097 15.2666 2.72949 13.5355 4.40334C12.5294 5.37645 12.0651 6.36813 11.9475 6.64911C11.7612 7.09193 11.4904 7.90455 11.466 8.92063C11.608 8.76079 11.7623 8.61226 11.9275 8.47637C12.3043 8.164 12.677 7.95757 12.9006 7.8343C13.5984 7.44728 14.391 7.19797 16.3703 7.06044C19.0602 6.87411 21.5009 6.93 21.6028 6.93287L21.6601 6.93431C22.3293 6.9501 22.9628 6.9658 23.5547 6.59609C23.8642 6.40267 24.1294 6.12752 24.3416 5.77774C24.4066 5.66907 24.4933 5.57503 24.5964 5.50153C24.6995 5.42802 24.8167 5.37664 24.9406 5.35062C25.008 5.33677 25.0767 5.32997 25.1455 5.33034Z" fill="#384BFF"></path><path fill-rule="evenodd" clip-rule="evenodd" d="M20.6722 26.1582C20.0452 26.1584 19.42 26.0902 18.8077 25.9547C18.203 25.8213 16.628 25.3742 15.0815 24.1073C14.3406 23.4997 12.9806 22.1596 12.208 20.01C11.9974 19.4238 11.8598 18.7933 11.7809 18.3618C11.2406 18.1196 10.7447 17.7542 10.3248 17.2856C9.78886 16.6866 9.41476 15.9614 9.24421 15.1889C8.89739 13.6182 9.43055 12.0761 10.7074 10.9611C11.0514 10.6616 11.5731 10.6959 11.8725 11.04C12.1721 11.3839 12.1377 11.9056 11.7937 12.2051C10.6858 13.1724 10.7303 14.2674 10.8563 14.8335C11.0799 15.8452 11.8408 16.7023 12.7495 16.966C12.9031 17.0105 13.0404 17.0986 13.1447 17.2198C13.249 17.3409 13.3159 17.4897 13.3371 17.6482C13.4001 18.1111 13.5477 18.862 13.7613 19.4539C14.4235 21.2969 15.6373 22.4306 16.1274 22.8333C17.3986 23.8738 18.6742 24.2378 19.1628 24.3466C20.5559 24.6533 21.7038 24.4513 22.1337 24.3495C23.3061 24.0728 24.0957 23.5283 24.434 23.2961C24.6776 23.1284 25.3139 22.6555 25.9617 21.8887C26.8975 20.7809 27.5869 19.2746 27.9595 17.5305C27.994 17.3685 28.0764 17.2207 28.196 17.1062C28.3157 16.9917 28.4669 16.9158 28.6303 16.8884C28.9942 16.8268 29.3913 16.5129 29.718 16.0286C30.0734 15.4998 30.3042 14.8348 30.35 14.2056C30.3988 13.5321 30.2641 12.6665 29.3411 12.3698C28.9069 12.2307 28.669 11.765 28.8081 11.3307C28.9471 10.8965 29.4128 10.6586 29.8471 10.7977C30.6296 11.0499 31.2386 11.5501 31.607 12.2465C31.918 12.8327 32.0527 13.5507 31.9969 14.3232C31.931 15.2303 31.5999 16.1877 31.0883 16.9487C30.6369 17.6195 30.0736 18.1038 29.4646 18.3546C29.0131 20.1818 28.2607 21.7268 27.2246 22.9535C26.4764 23.8392 25.7427 24.3995 25.3715 24.6546C24.993 24.9141 23.9884 25.6062 22.5152 25.9545C22.1182 26.0463 21.4748 26.1582 20.6722 26.1582Z" fill="#384BFF"></path><path fill-rule="evenodd" clip-rule="evenodd" d="M15.7167 29.3211C15.5894 29.3211 15.4639 29.2917 15.3498 29.2351C14.9414 29.0331 14.7737 28.5372 14.9772 28.1288C15.2309 27.6172 15.6608 26.591 15.6909 25.4631C15.7024 25.0202 15.6451 24.8181 15.5504 24.4813C15.5214 24.3794 15.4932 24.2772 15.4658 24.1747C15.3526 23.7333 15.6192 23.2832 16.0606 23.17C16.502 23.0568 16.9521 23.3233 17.0653 23.7648C17.0897 23.8565 17.114 23.9454 17.1384 24.0314C17.2474 24.4155 17.3606 24.8125 17.342 25.506C17.3048 26.9507 16.7716 28.229 16.4578 28.861C16.3895 28.9992 16.2839 29.1156 16.153 29.1969C16.022 29.2782 15.8708 29.3212 15.7167 29.3211ZM25.7215 29.8627C25.579 29.8628 25.4389 29.8261 25.3149 29.756C25.1908 29.6859 25.087 29.585 25.0135 29.4629C24.4689 28.5572 23.8111 27.1355 23.768 25.5074C23.7494 24.8123 23.8626 24.4154 23.9716 24.0327C23.996 23.9467 24.0203 23.8593 24.0447 23.7662C24.1579 23.3248 24.6079 23.0582 25.0494 23.1714C25.4908 23.2846 25.7574 23.7346 25.6442 24.1761C25.6155 24.2878 25.5854 24.391 25.5596 24.4827C25.465 24.818 25.4062 25.0215 25.4191 25.4644C25.4521 26.7342 25.9866 27.8779 26.428 28.6131C26.663 29.0043 26.5369 29.5116 26.1457 29.7453C26.0174 29.8219 25.8709 29.8624 25.7215 29.8627Z" fill="#384BFF"></path><path fill-rule="evenodd" clip-rule="evenodd" d="M41.2979 50H0.825811C0.371508 50 0.0017133 49.6316 0.000367616 49.1774C-0.00824477 46.2996 0.123632 39.1068 1.55822 34.4806C1.9395 33.2538 2.40089 32.252 3.00995 31.3291C3.52158 30.5552 4.9978 28.609 7.63471 27.269C10.051 26.0394 12.3627 25.8573 13.8761 25.9204C14.074 25.9286 14.2623 26.008 14.4064 26.144L20.8886 32.2305L27.7289 26.131C27.8715 26.0036 28.0538 25.9296 28.2449 25.9217C29.7582 25.8587 32.0685 26.042 34.4863 27.2703C37.1233 28.6117 38.5994 30.5566 39.111 31.3304C39.7215 32.2534 40.183 33.2538 40.5628 34.4819C41.222 36.6044 41.6807 39.508 41.9271 43.1079C42.0604 45.0513 42.1278 47.1494 42.1205 49.1773C42.122 49.6332 41.7523 50 41.2979 50ZM21.0117 48.3491H40.471C40.4595 46.6207 40.395 44.8637 40.2818 43.2213C40.0439 39.7474 39.6081 36.9713 38.9876 34.9707C38.6494 33.8829 38.2639 33.0402 37.735 32.2405C37.2951 31.5754 36.0253 29.903 33.738 28.7408C31.7889 27.749 29.9158 27.5412 28.6045 27.5613L21.4244 33.9631C21.2702 34.1001 21.0704 34.1746 20.8641 34.172C20.6578 34.1693 20.46 34.0897 20.3094 33.9488L13.5062 27.5598C12.1963 27.5426 10.329 27.7503 8.38408 28.7392C6.09677 29.9015 4.82707 31.574 4.38704 32.2389C3.85818 33.0386 3.47269 33.8799 3.13447 34.9676C2.51393 36.9683 2.0782 39.7444 1.84028 43.2183C1.72706 44.8607 1.66256 46.6178 1.65108 48.3461L21.0117 48.3491Z" fill="#384BFF"></path><path fill-rule="evenodd" clip-rule="evenodd" d="M8.66138 49.9999C8.20564 49.9999 7.83594 49.6301 7.83594 49.1745V39.6541C7.83594 39.1984 8.20573 38.8287 8.66138 38.8287C9.11703 38.8287 9.48683 39.1984 9.48683 39.6541V49.1745C9.487 49.6302 9.11721 49.9999 8.66138 49.9999ZM34.1313 49.9999C33.6755 49.9999 33.3058 49.6301 33.3058 49.1745V39.6541C33.3058 39.1984 33.6755 38.8287 34.1313 38.8287C34.587 38.8287 34.9567 39.1984 34.9567 39.6541V49.1745C34.9568 49.6302 34.587 49.9999 34.1313 49.9999ZM37.4519 26.1782C36.9961 26.1782 36.6264 25.8085 36.6264 25.3528V1.94233C36.6264 1.48659 36.9961 1.11688 37.4519 1.11688C37.9076 1.11688 38.2773 1.48668 38.2773 1.94233V25.3528C38.2774 25.8084 37.9076 26.1782 37.4519 26.1782Z" fill="#384BFF"></path><path fill-rule="evenodd" clip-rule="evenodd" d="M50.3811 14.7517H37.4757C37.0199 14.7517 36.6502 14.382 36.6502 13.9263V3.97448C36.6503 3.82021 36.6935 3.66903 36.7751 3.53809C36.8567 3.40715 36.9733 3.30169 37.1118 3.23366C37.2502 3.16563 37.405 3.13775 37.5585 3.15319C37.712 3.16863 37.8581 3.22677 37.9802 3.32101L50.8857 13.2727C51.0221 13.378 51.1222 13.5233 51.1718 13.6883C51.2214 13.8533 51.2181 14.0298 51.1624 14.1928C51.1067 14.3558 51.0015 14.4973 50.8614 14.5976C50.7213 14.6978 50.5534 14.7517 50.3811 14.7517ZM38.3012 13.1007H47.9591L38.3012 5.65416V13.1007ZM25.1707 47.0133H16.5833C16.1275 47.0133 15.7578 46.6435 15.7578 46.1878V36.0827C15.7578 35.627 16.1275 35.2573 16.5833 35.2573H25.1707C25.6264 35.2573 25.9961 35.627 25.9961 36.0827V46.1878C25.9964 46.2963 25.9752 46.4037 25.9338 46.504C25.8923 46.6042 25.8316 46.6953 25.7549 46.772C25.6782 46.8487 25.5871 46.9095 25.4868 46.9509C25.3866 46.9923 25.2792 47.0135 25.1707 47.0133ZM17.4102 45.3623H24.3466V36.9082H17.4102V45.3623Z" fill="#384BFF"></path><path fill-rule="evenodd" clip-rule="evenodd" d="M22.3708 39.5224H19.3655C18.9097 39.5224 18.54 39.1527 18.54 38.697C18.54 38.2412 18.9097 37.8715 19.3655 37.8715H22.3708C22.8266 37.8715 23.1963 38.2412 23.1963 38.697C23.1963 39.1527 22.8266 39.5224 22.3708 39.5224ZM22.3708 41.9615H19.3655C18.9097 41.9615 18.54 41.5918 18.54 41.1361C18.54 40.6803 18.9097 40.3106 19.3655 40.3106H22.3708C22.8266 40.3106 23.1963 40.6803 23.1963 41.1361C23.1963 41.5918 22.8266 41.9615 22.3708 41.9615ZM22.3708 44.4008H19.3655C18.9097 44.4008 18.54 44.0311 18.54 43.5753C18.54 43.1196 18.9097 42.7499 19.3655 42.7499H22.3708C22.8266 42.7499 23.1963 43.1196 23.1963 43.5753C23.1963 44.0311 22.8266 44.4008 22.3708 44.4008ZM16.5751 36.9083C16.4323 36.9084 16.2918 36.8715 16.1675 36.8012C16.0432 36.7309 15.9392 36.6295 15.8658 36.507L10.3912 27.3763C10.3353 27.2834 10.2984 27.1803 10.2824 27.0731C10.2665 26.9658 10.2718 26.8565 10.2982 26.7513C10.3245 26.6462 10.3714 26.5472 10.436 26.4602C10.5007 26.3731 10.5819 26.2997 10.6749 26.2441C10.7679 26.1882 10.8709 26.1513 10.9782 26.1353C11.0854 26.1194 11.1947 26.1247 11.2999 26.1511C11.4051 26.1774 11.504 26.2243 11.5911 26.2889C11.6781 26.3536 11.7516 26.4348 11.8072 26.5278L17.2818 35.6584C17.3376 35.7513 17.3746 35.8544 17.3905 35.9616C17.4065 36.0689 17.4011 36.1782 17.3748 36.2834C17.3484 36.3886 17.3016 36.4875 17.2369 36.5745C17.1723 36.6616 17.0911 36.735 16.998 36.7907C16.8706 36.8681 16.7242 36.9088 16.5751 36.9083ZM25.1611 36.9083C25.0117 36.9086 24.8649 36.868 24.7369 36.7908C24.5492 36.6782 24.4139 36.4957 24.3607 36.2834C24.3075 36.0711 24.3407 35.8464 24.4531 35.6586L29.9277 26.528C30.0404 26.3403 30.2229 26.205 30.4352 26.1518C30.6475 26.0986 30.8722 26.1319 31.06 26.2442C31.2477 26.3569 31.383 26.5394 31.4362 26.7517C31.4894 26.964 31.4561 27.1887 31.3438 27.3765L25.8692 36.5071C25.7157 36.7649 25.442 36.9083 25.1611 36.9083Z" fill="#384BFF"></path></svg>