<svg xmlns="http://www.w3.org/2000/svg" width="42" height="52" viewBox="0 0 42 52" fill="none"><path d="M36.8389 40.1882L34.384 34.2614M21.1638 44.4075L23.1225 49.1364C24.0297 51.3265 26.9918 51.6639 28.3681 49.7338C29.0725 48.7461 30.0403 47.9763 31.1611 47.512C32.2819 47.0478 33.5106 46.9078 34.707 47.1082C37.0451 47.4996 38.901 45.1666 37.9939 42.9765M22.4478 41.1248L19.1293 49.1364C18.2222 51.3265 15.2601 51.6639 13.8837 49.7338C13.1794 48.7461 12.2116 47.9763 11.0908 47.512C9.97005 47.0478 8.74137 46.9079 7.5449 47.1082C5.20688 47.4996 3.35094 45.1666 4.25809 42.9765L7.86794 34.2614" stroke="#384BFF" stroke-width="1.5" stroke-miterlimit="10" stroke-linecap="round" stroke-linejoin="round"></path><path d="M41.2414 21.1207C41.2414 19.9578 40.7973 18.899 40.0696 18.1041C39.1216 17.0686 38.7419 15.6193 39.0417 14.2477C39.271 13.1985 39.1252 12.064 38.5457 11.0603C37.9655 10.0554 37.0542 9.36126 36.0291 9.0358C34.6899 8.61065 33.6307 7.5515 33.2056 6.21227C32.8801 5.18722 32.186 4.27585 31.181 3.69567C30.1775 3.1163 29.043 2.97042 27.9937 3.1997C26.6221 3.49949 25.1728 3.11982 24.1373 2.17183C23.3424 1.44406 22.2836 1 21.1207 1C19.9578 1 18.899 1.44406 18.1041 2.17183C17.0686 3.11982 15.6193 3.49949 14.2477 3.1997C13.1985 2.97042 12.064 3.11619 11.0603 3.69567C10.0554 4.27585 9.36126 5.18722 9.03581 6.21227C8.61065 7.5515 7.5515 8.61065 6.21227 9.0358C5.18722 9.36126 4.27585 10.0554 3.69567 11.0603C3.11629 12.0639 2.97042 13.1984 3.1997 14.2476C3.49949 15.6192 3.11982 17.0685 2.17183 18.104C1.44406 18.899 1 19.9578 1 21.1207C1 22.2836 1.44406 23.3424 2.17183 24.1373C3.11982 25.1728 3.49949 26.6222 3.1997 27.9937C2.97042 29.0429 3.11619 30.1774 3.69567 31.1809C4.27585 32.1859 5.18722 32.88 6.21227 33.2055C7.5515 33.6306 8.61065 34.6898 9.03581 36.029C9.36126 37.0541 10.0553 37.9654 11.0603 38.5456C12.0639 39.125 13.1984 39.2709 14.2477 39.0416C15.6193 38.7418 17.0686 39.1215 18.1041 40.0695C18.8991 40.7972 19.9578 41.2413 21.1207 41.2413C22.2836 41.2413 23.3424 40.7972 24.1373 40.0695C25.1728 39.1215 26.6221 38.7418 27.9937 39.0416C29.0429 39.2709 30.1774 39.1251 31.181 38.5456C32.186 37.9654 32.8801 37.0541 33.2056 36.029C33.6307 34.6898 34.6899 33.6306 36.0291 33.2055C37.0542 32.88 37.9655 32.186 38.5457 31.1809C39.1251 30.1774 39.271 29.0429 39.0417 27.9936C38.7419 26.622 39.1216 25.1727 40.0696 24.1372C40.7973 23.3424 41.2414 22.2836 41.2414 21.1207Z" stroke="#384BFF" stroke-width="1.5" stroke-miterlimit="10" stroke-linecap="round" stroke-linejoin="round"></path><path d="M12.7631 10.6328C15.0565 8.80228 17.9612 7.70691 21.1169 7.70691C28.5134 7.70691 34.5307 13.7243 34.5307 21.1207C34.5307 28.517 28.5134 34.5344 21.1169 34.5344C13.7205 34.5344 7.70312 28.517 7.70312 21.1207C7.70312 17.9649 8.7985 15.0603 10.629 12.7669" stroke="#384BFF" stroke-width="1.5" stroke-miterlimit="10" stroke-linecap="round" stroke-linejoin="round"></path><path d="M18.3984 26.5413C18.6506 26.7942 18.9503 26.9947 19.2802 27.1313C19.6101 27.268 19.9638 27.3381 20.3209 27.3376H26.4487C27.9502 27.3376 29.1674 26.1204 29.1674 24.6189V19.7762C29.1674 18.2746 27.9502 17.0574 26.4487 17.0574H23.7668L25.2534 14.9125C25.6022 14.4093 25.5821 13.722 25.1712 13.2682C25.0566 13.1411 24.918 13.0378 24.7635 12.9642C24.609 12.8906 24.4415 12.8482 24.2705 12.8394C24.0996 12.8306 23.9286 12.8555 23.7673 12.9128C23.606 12.9701 23.4576 13.0586 23.3305 13.1732L18.4994 17.5327" stroke="#384BFF" stroke-width="1.5" stroke-miterlimit="10" stroke-linecap="round" stroke-linejoin="round"></path><path d="M14.6814 27.3377H16.8967C17.7865 27.3377 18.5077 26.6164 18.5077 25.7266V18.0738C18.5077 17.184 17.7864 16.4628 16.8967 16.4628H14.6814C13.7915 16.4628 13.0703 17.1841 13.0703 18.0738V25.7266C13.0703 26.6164 13.7916 27.3377 14.6814 27.3377Z" stroke="#384BFF" stroke-width="1.5" stroke-miterlimit="10" stroke-linecap="round" stroke-linejoin="round"></path></svg>