<svg xmlns="http://www.w3.org/2000/svg" width="52" height="47" viewBox="0 0 52 47" fill="none"><path d="M44.6161 30.4403L35.3903 34.3378C35.4067 34.2227 35.4231 34.1076 35.4231 33.9842C35.4231 32.1917 33.9677 30.7363 32.1752 30.7363H25.5313C25.26 30.7363 24.9968 30.6787 24.7502 30.5636L19.1176 28.0146C18.2304 27.6169 17.2696 27.4097 16.2973 27.4061H11.709V29.0506H16.2973C17.0291 29.0506 17.7691 29.2069 18.4434 29.5111L24.0759 32.0601C24.5364 32.2657 25.0297 32.3726 25.5395 32.3726H32.1834C33.0715 32.3726 33.7868 33.0962 33.7868 33.976C33.7868 34.8558 33.0633 35.5794 32.1834 35.5794H23.5743V37.2239H32.1752C32.7426 37.2239 33.2688 37.0677 33.7293 36.8128V36.821L45.2492 31.945C45.7149 31.7462 46.2164 31.6451 46.7228 31.6479C47.2291 31.6507 47.7295 31.7574 48.1929 31.9614C48.9165 32.2821 49.5085 32.8002 49.9032 33.4744L29.5686 44.2625C28.0145 45.0848 26.1645 45.2492 24.487 44.7148L14.5376 41.5162L11.7008 41.475V43.1196H14.1594L23.9855 46.2771C24.7995 46.5402 25.6382 46.6635 26.4851 46.6635C27.8172 46.6635 29.1493 46.3429 30.3333 45.7097L52 34.2309L51.7615 33.5566C51.5157 32.8687 51.1313 32.2386 50.632 31.7054C50.1327 31.1722 49.5292 30.7472 48.8589 30.4567C47.494 29.8729 45.9892 29.8565 44.6161 30.4403ZM9.92473 44.4105V26.9539C9.92473 26.0494 9.18469 25.3093 8.2802 25.3093H0V26.9539H8.2802V44.4188H0V46.0633H8.2802C9.18469 46.0551 9.92473 45.315 9.92473 44.4105Z" fill="#384BFF"></path><path d="M6.12142 41.8533C6.12099 42.0049 6.0907 42.1549 6.03229 42.2948C5.97387 42.4347 5.88847 42.5617 5.78096 42.6686C5.67346 42.7755 5.54595 42.8602 5.40572 42.9178C5.26549 42.9754 5.11528 43.0049 4.96368 43.0044C4.81207 43.004 4.66203 42.9737 4.52213 42.9153C4.38223 42.8569 4.25521 42.7715 4.14831 42.664C4.04142 42.5565 3.95674 42.429 3.89912 42.2887C3.84151 42.1485 3.81207 41.9983 3.8125 41.8467C3.81338 41.5405 3.93584 41.2472 4.15296 41.0313C4.37008 40.8154 4.66407 40.6946 4.97025 40.6955C5.27643 40.6964 5.56973 40.8188 5.78562 41.036C6.0015 41.2531 6.1223 41.5471 6.12142 41.8533ZM19.4586 19.5699L20.3466 20.2277L26.4642 16.84L31.9981 20.1701L32.475 20.4497L33.363 19.8083L32.031 12.9507L36.9235 8.70778L37.3181 8.32954L36.9728 7.30993L30.0493 6.45477L27.5332 0.501581L27.303 0.00822244L26.7767 0H26.2176L23.2656 6.33966L16.8191 6.88235L16.2682 6.94813L15.9393 7.97596L21.0455 12.7369L19.4586 19.5699ZM18.7596 8.37065L23.8741 7.92663L24.3592 7.86907L26.7191 2.80392L28.7172 7.5155L28.9228 7.96774L34.4813 8.65022L30.6331 11.9886L30.2467 12.3175L31.3156 17.8267L26.9083 15.1708L26.4889 14.9488L21.6129 17.654L22.7558 12.7204L22.8956 12.2106L18.7596 8.37065Z" fill="#384BFF"></path><path d="M8.64419 16.5357L7.45191 21.6584L7.28746 22.2505L8.21662 22.9329L13.3393 20.0961L17.8618 22.8096L18.3716 23.1303L19.2843 22.4642L18.166 16.7166L19.3583 15.6888L18.2811 14.4472L16.6942 15.8203L16.4557 16.0999V16.4288L17.2286 20.5155L13.8902 18.5009L13.7176 18.3365L13.0186 18.32L12.8542 18.4845L9.44179 20.3757L10.3627 16.3795V15.8943L7.16412 12.9178L11.0781 12.5724L11.4563 12.5642L11.8017 12.2188L13.5531 8.45286L15.1319 12.1777L15.3868 12.6629H15.8472L17.8289 12.9095L18.0345 11.2732L16.4475 11.0841L14.3589 6.15052L14.0794 5.62427L12.9446 5.71472L12.7884 6.19985L10.5683 10.9772L5.33869 11.4295L4.6891 11.4623L4.34375 12.6629L4.796 12.9589L8.64419 16.5357ZM35.672 11.0841L35.82 12.7204L37.407 12.5724L37.777 12.556L38.1224 12.2106L39.8738 8.44463L41.3785 11.9886L41.395 12.6546H42.1679L46.0901 13.1398L43.0395 15.7875L42.7682 16.0752V16.4288L43.5493 20.5073L40.2027 18.5009L40.03 18.3283L39.3064 18.3365L39.1584 18.4927L35.7625 20.3757L36.6916 16.3795L36.6834 15.8943L34.5784 13.9291L33.4519 15.1296L34.9567 16.5357L33.7726 21.6584L33.6081 22.2093L34.5044 22.9494L39.66 20.0961L44.1907 22.8178L44.7005 23.1303L45.5968 22.456L44.4785 16.7166L48.4336 13.2878C48.7049 13.074 48.82 12.7122 48.7296 12.3833L48.5405 11.7995L42.7682 11.0923L40.6632 6.14229L40.4165 5.69005L39.438 5.65716L39.1831 6.06007L36.8808 10.9772L35.672 11.0841Z" fill="#384BFF"></path></svg>